<svg width="139" height="28" viewBox="0 0 139 28" fill="none" xmlns="http://www.w3.org/2000/svg">
<path d="M14.1418 9.64247H4.51272V1.15137H1.36816V21.6228H4.51272V12.4958H14.1418V21.6228H17.3041V1.15137H14.1418V9.64247Z" fill="#030436"/>
<path d="M54.4525 6.34229C52.9424 6.34229 51.6988 6.87513 50.7395 7.88925V6.66887H47.5771V27.4841L50.7395 26.0746V20.3509C51.6455 21.4166 52.8891 22.001 54.4525 22.001C56.3535 22.001 57.9169 21.3134 59.0716 19.9212C60.2264 18.5117 60.8305 16.621 60.8305 14.1974C60.8305 11.7738 60.2797 9.83154 59.1249 8.47365C57.9702 7.01263 56.4245 6.34229 54.4525 6.34229ZM56.7088 17.8414C56.1047 18.718 55.1632 19.0961 54.0084 19.0961C52.7115 19.0961 51.6455 18.5117 50.7572 17.3945V10.8972C51.4679 9.77998 52.5693 9.19557 54.0084 9.19557C55.1632 9.19557 56.0692 9.67685 56.7088 10.5535C57.3661 11.4816 57.6681 12.6848 57.6681 14.1458C57.6681 15.7444 57.3128 17.0163 56.7088 17.8414Z" fill="#030436"/>
<path d="M78.9874 7.25327C78.3834 6.9095 77.726 6.66887 77.1398 6.53136C76.5357 6.39385 75.8428 6.34229 75.0789 6.34229C72.7694 6.34229 70.8684 6.87513 69.305 7.88925L70.2644 10.3644C71.5257 9.43621 72.9648 9.0065 74.6703 9.0065C75.8251 9.0065 76.6778 9.24713 77.1753 9.72841C77.726 10.2097 77.9747 10.9832 77.9747 12.1004V12.9255C76.9266 12.3411 75.6652 12.0489 74.1729 12.0489C72.5206 12.0489 71.1171 12.4786 69.9624 13.3036C68.8076 14.1287 68.2568 15.3834 68.2568 16.9819C68.2568 18.5805 68.7543 19.8008 69.7669 20.6603C70.7796 21.5197 72.1298 21.9666 73.7287 21.9666C75.4342 21.9666 76.891 21.4337 77.9392 20.3165V21.6228H80.9416V11.9629C80.9416 10.7941 80.7462 9.83154 80.3909 9.0065C80.0889 8.18145 79.5737 7.59704 78.9874 7.25327ZM77.9215 17.6867C76.9266 18.7523 75.7185 19.2852 74.2617 19.2852C73.2668 19.2852 72.5029 19.0961 72.0054 18.6492C71.4547 18.2539 71.206 17.6867 71.206 16.9476C71.206 16.1741 71.508 15.5897 72.1653 15.1943C72.8227 14.799 73.6221 14.6099 74.617 14.6099C75.8784 14.6099 76.9799 14.8506 77.9215 15.3318V17.6867Z" fill="#030436"/>
<path d="M93.8752 17.4978V9.35049H97.5349V6.72066H93.8752V0.515625L90.7128 1.97664V6.68628H88.3145V9.29893H90.7128V18.2713C90.7128 20.7464 91.8676 22.0012 94.1772 22.0012C95.332 22.0012 96.3801 21.7606 97.2862 21.3137L97.6948 18.4948C96.8954 18.976 96.1492 19.2167 95.3853 19.2167C94.3726 19.1995 93.8752 18.6151 93.8752 17.4978Z" fill="#030436"/>
<path d="M111.676 6.34229C109.527 6.34229 107.768 7.02982 106.506 8.42209C105.245 9.83154 104.605 11.7223 104.605 14.1458C104.605 16.5694 105.263 18.5117 106.506 19.8696C107.75 21.2275 109.473 21.9494 111.676 21.9494C113.826 21.9494 115.585 21.2619 116.846 19.8696C118.108 18.5117 118.747 16.5694 118.747 14.1458C118.747 11.7223 118.09 9.77998 116.846 8.42209C115.585 7.01263 113.826 6.34229 111.676 6.34229ZM114.537 17.7898C113.826 18.6664 112.884 19.0961 111.676 19.0961C110.468 19.0961 109.527 18.6664 108.816 17.7898C108.105 16.9132 107.768 15.71 107.768 14.1974C107.768 12.6504 108.123 11.4301 108.816 10.5535C109.509 9.67685 110.468 9.24713 111.676 9.24713C112.884 9.24713 113.826 9.67685 114.537 10.5535C115.247 11.4301 115.585 12.6333 115.585 14.1974C115.585 15.6928 115.229 16.9132 114.537 17.7898Z" fill="#030436"/>
<path d="M136.388 14.5416C135.589 13.7509 134.292 13.1321 132.533 12.5477C131.485 12.1524 130.721 11.8258 130.277 11.5336C129.833 11.2414 129.566 10.8976 129.566 10.4163C129.566 9.98663 129.761 9.64286 130.17 9.40223C130.579 9.16159 131.076 9.00689 131.769 9.00689C133.03 9.00689 134.079 9.4366 134.931 10.2616L137.188 8.50843C135.891 7.01303 134.079 6.27393 131.769 6.27393C130.223 6.27393 128.909 6.66926 127.914 7.39118C126.919 8.11309 126.404 9.1444 126.404 10.3992C126.404 11.568 126.812 12.5305 127.612 13.2696C128.411 13.9915 129.673 14.6275 131.325 15.2119C132.071 15.5041 132.622 15.6932 132.977 15.8995C133.332 16.037 133.688 16.2948 133.972 16.587C134.256 16.8792 134.469 17.223 134.469 17.6011C134.469 18.6668 133.563 19.1996 131.769 19.1996C130.508 19.1996 129.371 18.7184 128.251 17.7042L125.995 19.5434C126.546 20.2653 127.345 20.8497 128.394 21.331C129.442 21.7607 130.596 22.0186 131.805 22.0186C133.617 22.0186 135.02 21.6232 136.068 20.9013C137.117 20.1794 137.614 19.0621 137.614 17.6527C137.649 16.3292 137.241 15.3151 136.388 14.5416Z" fill="#030436"/>
<path d="M34.2529 13.9054L35.763 17.9275L40.169 6.82373H37.0066L34.2529 13.9054Z" fill="#030436"/>
<path d="M25.4229 6.82373L31.1968 21.5199L28.7806 27.4327H31.9962L34.2525 21.7605L28.5319 6.82373H25.4229Z" fill="#030436"/>
</svg>
