<?xml version="1.0" encoding="utf-8"?>
<!-- Svg Vector Icons : http://www.onlinewebfonts.com/icon -->
<!DOCTYPE svg PUBLIC "-//W3C//DTD SVG 1.1//EN" "http://www.w3.org/Graphics/SVG/1.1/DTD/svg11.dtd">
<svg version="1.1" xmlns="http://www.w3.org/2000/svg" xmlns:xlink="http://www.w3.org/1999/xlink" x="0px" y="0px" viewBox="0 0 1000 1000" enable-background="new 0 0 1000 1000" xml:space="preserve">
<metadata> Svg Vector Icons : http://www.onlinewebfonts.com/icon </metadata>
<g><path d="M348.1,424c-41.6,0-76,34.3-76,76c0,41.6,34.3,76,76,76c41.6,0,114-34.3,114-76C462,458.4,389.7,424,348.1,424z M500,10C229.4,10,10,229.4,10,500c0,270.6,219.4,490,490,490c270.6,0,490-219.4,490-490S770.6,10,500,10z M651.9,651.9c-52.1,0-113.4-26.9-151.9-67.4c-38.6,40.5-99.8,67.4-151.9,67.4c-83.3,0-148.1-68.7-148.1-151.9c0-83.3,64.9-151.9,148.1-151.9c52.1,0,113.4,26.9,151.9,67.4c38.6-40.5,99.8-67.4,151.9-67.4c83.3,0,148.1,68.7,148.1,151.9C800.1,583.3,735.2,651.9,651.9,651.9z M651.9,424c-41.6,0-114,34.3-114,76c0,41.6,72.3,76,114,76s76-34.3,76-76C727.9,458.4,693.6,424,651.9,424z"/></g>
</svg>