<svg xmlns="http://www.w3.org/2000/svg" viewBox="0 0 128 128">
<path id="a" d="M64.026 96.076c33.676 0 60.976-14.361 60.976-32.076s-27.3-32.075-60.976-32.075-60.975 14.36-60.975 32.075 27.3 32.076 60.975 32.076"></path><path id="c" d="M2.998 31.924h122.004v64.1h-122.004z"></path><path id="e" d="M2.998 31.924h122.004v64.1h-122.004z"></path><path fill="#6181B6" d="M64.026 93.694c32.36 0 58.594-13.295 58.594-29.694s-26.233-29.694-58.594-29.694-58.593 13.295-58.593 29.694 26.233 29.694 58.593 29.694z"></path><path fill="#fff" d="M75.896 73.598l2.906-14.958c.656-3.377.11-5.896-1.62-7.486-1.677-1.54-4.523-2.288-8.703-2.288h-5.033l1.44-7.412c.055-.279-.02-.568-.2-.788-.181-.219-.45-.347-.735-.347h-6.947c-.456 0-.848.323-.936.771l-3.086 15.881c-.28-1.787-.973-3.323-2.079-4.591-2.038-2.332-5.261-3.515-9.58-3.515h-13.467c-.456 0-.848.322-.935.771l-6.247 32.144c-.055.278.02.568.2.787.181.22.451.347.735.347h7.002c.456 0 .849-.323.936-.771l1.511-7.775h5.213c2.735 0 5.032-.296 6.827-.881 1.834-.596 3.522-1.607 5.011-3.001 1.202-1.104 2.196-2.341 2.96-3.676l-1.248 6.424c-.054.278.02.567.2.787s.451.347.735.347h6.947c.456 0 .848-.323.936-.771l3.429-17.645h4.767c2.031 0 2.626.404 2.787.578.147.159.452.718.11 2.48l-2.764 14.223c-.055.278.019.567.2.787.181.22.45.347.735.347h7.058c.455.001.848-.322.935-.769zm-32.208-12.36c-.437 2.242-1.259 3.842-2.444 4.755-1.205.927-3.132 1.397-5.727 1.397h-3.104l2.244-11.548h4.012c2.948 0 4.136.63 4.612 1.158.662.734.802 2.199.407 4.238zM105.604 52.38c-2.038-2.332-5.261-3.515-9.581-3.515h-13.464c-.456 0-.849.322-.936.771l-6.248 32.144c-.054.278.02.568.201.787.181.22.45.347.734.347h7.003c.455 0 .848-.323.935-.771l1.512-7.775h5.212c2.735 0 5.033-.296 6.827-.881 1.835-.596 3.522-1.607 5.011-3.001 1.241-1.141 2.264-2.421 3.037-3.806.772-1.383 1.328-2.927 1.65-4.588.797-4.094.16-7.363-1.893-9.712zm-7.262 8.858c-.437 2.242-1.259 3.842-2.444 4.755-1.204.927-3.131 1.397-5.727 1.397h-3.104l2.245-11.548h4.012c2.948 0 4.136.63 4.612 1.158.662.734.801 2.199.406 4.238z"></path><path fill="#000004" d="M38.67 54.89c2.66 0 4.434.491 5.32 1.474.885.982 1.097 2.668.633 5.057-.484 2.488-1.416 4.264-2.798 5.328-1.382 1.063-3.485 1.595-6.308 1.595h-4.26l2.614-13.453h4.799v-.001zm-17.061 27.072h7.002l1.661-8.546h5.998c2.646 0 4.823-.277 6.532-.834 1.709-.556 3.263-1.488 4.661-2.797 1.173-1.078 2.122-2.268 2.85-3.569.727-1.3 1.242-2.734 1.547-4.305.741-3.811.182-6.778-1.676-8.904s-4.812-3.189-8.862-3.189h-13.466l-6.247 32.144zM57.003 41.271h6.947l-1.661 8.546h6.189c3.894 0 6.58.68 8.059 2.037 1.479 1.359 1.921 3.561 1.33 6.603l-2.906 14.959h-7.058l2.763-14.223c.314-1.618.199-2.722-.347-3.311-.546-.587-1.708-.882-3.485-.882h-5.553l-3.578 18.416h-6.947l6.247-32.145zM93.324 54.89c2.66 0 4.434.491 5.319 1.474.887.982 1.097 2.668.634 5.057-.484 2.488-1.417 4.264-2.799 5.328-1.382 1.063-3.484 1.595-6.308 1.595h-4.259l2.614-13.453h4.799v-.001zm-17.06 27.072h7.002l1.661-8.546h5.997c2.646 0 4.823-.277 6.532-.834 1.71-.556 3.264-1.488 4.661-2.797 1.174-1.078 2.123-2.268 2.851-3.569.726-1.3 1.242-2.734 1.547-4.305.74-3.811.182-6.778-1.676-8.904s-4.812-3.189-8.863-3.189h-13.465l-6.247 32.144z"></path>
</svg>